# xmcd CD database file
#
# Track frame offsets:
#	150
#	21710
#	43717
#	64827
#	77904
#	94970
#	112833
#	125103
#	142241
#	155052
#
# Disc length: 2296 seconds
#
# Revision: 0
# Processed by: cddbd v1.5.2PL0 Copyright (c) Steve Scherf et al.
# Submitted via: CDex 1.51
#
DISCID=9708f60a
DTITLE=KEN HENSLEY - Love  Other Mysteries
DYEAR=2012
DGENRE=Salsa
TTITLE0=(This) Bleeding Heart
TTITLE1=Romance
TTITLE2=(Please) Tell Me When
TTITLE3=No Matter
TTITLE4=Come To Me
TTITLE5=This House
TTITLE6=Walk Away
TTITLE7=Eyes(The Girl In The Purple Dress)
TTITLE8=Respiro Tu Amor
TTITLE9=Little Guy
EXTD=YEAR: 2012
EXTT0=
EXTT1=
EXTT2=
EXTT3=
EXTT4=
EXTT5=
EXTT6=
EXTT7=
EXTT8=
EXTT9=
PLAYORDER=
